<?xml version="1.0"?>
<svg xmlns="http://www.w3.org/2000/svg" id="Line" width="512" height="512" viewBox="0 0 64 64" class=""><g><path d="M62,61H60V37.6l1.349,1.156a1,1,0,0,0,1.3-1.518l-21-18a1,1,0,0,0-1.3,0l-21,18a1,1,0,1,0,1.3,1.518L22,37.6V61H20a1,1,0,0,0,0,2H62a1,1,0,0,0,0-2ZM48,60a1,1,0,0,1-2,0V50a1,1,0,0,0-1-1H37a1,1,0,0,0-1,1V60a1,1,0,0,1-2,0V50a3,3,0,0,1,3-3h8a3,3,0,0,1,3,3Z" style="fill:#1273EB" data-original="#C4A2FC" class="active-path" data-old_color="#C4A2FC"/><path d="M44.668,29.738a6,6,0,1,0-7.353-.013,10.129,10.129,0,0,0-5.891,6.412,8.005,8.005,0,0,0-1.987-1.35,5.5,5.5,0,1,0-6.874,0,8.029,8.029,0,0,0-1.987,1.349,10.1,10.1,0,0,0-5.9-6.4,6,6,0,1,0-7.344.006A10.385,10.385,0,0,0,1,39.318V48a3,3,0,0,0,3,3H48a3,3,0,0,0,3-3V39.318A10.383,10.383,0,0,0,44.668,29.738ZM41,21a4,4,0,1,1-4,4A4,4,0,0,1,41,21ZM22.5,30.5A3.5,3.5,0,1,1,26,34,3.5,3.5,0,0,1,22.5,30.5ZM11,21a4,4,0,1,1-4,4A4,4,0,0,1,11,21ZM3,48V39.318A8.217,8.217,0,0,1,10.8,31a8.044,8.044,0,0,1,8.153,7.108c0,.025.018.045.023.069A7.942,7.942,0,0,0,18,42v7H4A1,1,0,0,1,3,48Zm17-6a6,6,0,0,1,12,0v7H20Zm29,6a1,1,0,0,1-1,1H34V42a7.942,7.942,0,0,0-.974-3.821c0-.024.02-.044.023-.069A8.1,8.1,0,0,1,41.2,31,8.217,8.217,0,0,1,49,39.318Z" style="fill:#151A6A" data-original="#151A6A" class=""/><path d="M26,3.478A8.47,8.47,0,0,0,20,1c-3.925,0-7,3.467-7,7.894,0,4.678,3.33,10.826,12.674,14.051a.991.991,0,0,0,.652,0C35.67,19.72,39,13.572,39,8.894,39,4.467,35.925,1,32,1A8.47,8.47,0,0,0,26,3.478ZM37,8.894c0,3.937-2.9,9.14-11,12.046-8.1-2.906-11-8.109-11-12.046C15,6,16.87,3,20,3a6.488,6.488,0,0,1,5.172,2.561,1,1,0,0,0,1.655,0A6.491,6.491,0,0,1,32,3C35.13,3,37,6,37,8.894Z" style="fill:#151A6A" data-original="#151A6A" class=""/></g> </svg>
