<?xml version="1.0"?>
<svg xmlns="http://www.w3.org/2000/svg" id="Line" height="512" viewBox="0 0 64 64" width="512" class="hovered-paths"><g><g fill="#c4a2fc"><circle cx="22" cy="28" r="7" data-original="#C4A2FC" class="" style="fill:#1273EB" data-old_color="#C4A2FC"/><path d="m60 37h-13.171a1 1 0 0 1 -.708-.293l-7.414-7.414a1.031 1.031 0 0 0 -.707-.284 1.01 1.01 0 0 0 -.707.284l-7.414 7.414a1 1 0 0 1 -.708.293h-13.171a3 3 0 0 0 -3 3v20a3 3 0 0 0 3 3h12a3 3 0 0 0 3-3v-11.469a.993.993 0 0 1 .132-.5l6.868-12.016 6.869 12.021a1 1 0 0 1 .131.495v11.469a3 3 0 0 0 3 3h12a3 3 0 0 0 3-3v-20a3 3 0 0 0 -3-3z" data-original="#C4A2FC" class="" style="fill:#1273EB" data-old_color="#C4A2FC"/><circle cx="54" cy="28" r="7" data-original="#C4A2FC" class="" style="fill:#1273EB" data-old_color="#C4A2FC"/></g><path d="m39 15a7 7 0 1 0 -7-7 7.008 7.008 0 0 0 7 7zm0-12a5 5 0 1 1 -5 5 5.006 5.006 0 0 1 5-5z" fill="#151a6a" data-original="#151A6A" class="hovered-path active-path" style="fill:#151A6A"/><path d="m13 15a7 7 0 1 0 -7-7 7.008 7.008 0 0 0 7 7zm0-12a5 5 0 1 1 -5 5 5.006 5.006 0 0 1 5-5z" fill="#151a6a" data-original="#151A6A" class="hovered-path active-path" style="fill:#151A6A"/><path d="m48 17h-42a5.006 5.006 0 0 0 -5 5v26a3 3 0 0 0 3 3h18a3 3 0 0 0 3-3v-21h2v21a3 3 0 0 0 3 3h18a3 3 0 0 0 3-3v-28a3 3 0 0 0 -3-3zm-25 31a1 1 0 0 1 -1 1h-18a1 1 0 0 1 -1-1v-22.026a4.948 4.948 0 0 0 3 1.026h17zm26 0a1 1 0 0 1 -1 1h-18a1 1 0 0 1 -1-1v-22a1 1 0 0 0 -1-1h-22a3 3 0 0 1 0-6h42a1 1 0 0 1 1 1z" fill="#151a6a" data-original="#151A6A" class="hovered-path active-path" style="fill:#151A6A"/></g> </svg>
