<?xml version="1.0"?>
<svg xmlns="http://www.w3.org/2000/svg" id="Line" height="512" viewBox="0 0 64 64" width="512" class=""><g><g fill="#c4a2fc"><rect height="20.003" rx="3" width="8" x="55" y="15.997" data-original="#C4A2FC" class="active-path" style="fill:#1273EB" data-old_color="#C4A2FC"/><path d="m30.681 30.029a6 6 0 0 1 -.09-1.04 7 7 0 0 1 6.99-6.989h2.419a1 1 0 0 1 0 2h-2.42a5 5 0 0 0 .01 10h15.51a5.005 5.005 0 0 1 -.1-1v-14a4.954 4.954 0 0 1 .16-1.194l-13.579-4.55a5.135 5.135 0 0 0 -4.44.6l-19.73 13.2a5.42 5.42 0 1 0 6.25 8.852l7.82-5.881z" data-original="#C4A2FC" class="active-path" style="fill:#1273EB" data-old_color="#C4A2FC"/><rect height="20.003" rx="3" width="8" x="13" y="40" data-original="#C4A2FC" class="active-path" style="fill:#1273EB" data-old_color="#C4A2FC"/><path d="m54.339 40.09-7.82 5.881h-1.2a6 6 0 0 1 .09 1.04 7 7 0 0 1 -6.99 6.989h-2.419a1 1 0 0 1 0-2h2.42a5 5 0 0 0 -.01-10h-15.51a5.005 5.005 0 0 1 .1 1v14a4.947 4.947 0 0 1 -.16 1.194l13.579 4.547a5.135 5.135 0 0 0 4.44-.6l19.73-13.2a5.42 5.42 0 1 0 -6.25-8.852z" data-original="#C4A2FC" class="active-path" style="fill:#1273EB" data-old_color="#C4A2FC"/></g><path d="m35.941 1a15.112 15.112 0 0 0 -9.941 3.677 15.112 15.112 0 0 0 -9.941-3.677 14.936 14.936 0 0 0 -15.059 14.776c0 18.65 23.579 29.671 24.583 30.131a.974.974 0 0 0 .82 0c11.429-5.058 24.597-16.789 24.597-30.131a14.936 14.936 0 0 0 -15.059-14.776zm-10.941 42.373a61.584 61.584 0 0 1 -9.063-5.9l9.063-9.06zm2-14.96 9.059 9.059a61.876 61.876 0 0 1 -9.059 5.901zm-24-12.637a12.934 12.934 0 0 1 13.059-12.776 13.115 13.115 0 0 1 8.941 3.482v19.1l-10.62 10.623c-5.743-4.884-11.38-11.86-11.38-20.429zm34.617 20.424-10.617-10.615v-19.103a13.115 13.115 0 0 1 8.941-3.482 12.934 12.934 0 0 1 13.059 12.776c0 8.563-5.639 15.539-11.383 20.424z" fill="#151a6a" data-original="#151A6A" class="" style="fill:#151A6A" data-old_color="#151a6a"/></g> </svg>
