<?xml version="1.0"?>
<svg xmlns="http://www.w3.org/2000/svg" id="Line" height="512" viewBox="0 0 64 64" width="512" class=""><g><path d="m18.5 41a22 22 0 1 0 22-22 22.025 22.025 0 0 0 -22 22zm10-12h4a1 1 0 0 1 1 1v10a7.006 7.006 0 0 0 6 6.92v-18.92a1 1 0 0 1 2 0v18.92a7.006 7.006 0 0 0 6-6.92v-10a1 1 0 0 1 1-1h4a1 1 0 0 1 0 2h-3v9a9.01 9.01 0 0 1 -8 8.941v4.059h5a1 1 0 0 1 0 2h-12a1 1 0 0 1 0-2h5v-4.059a9.01 9.01 0 0 1 -8-8.941v-9h-3a1 1 0 0 1 0-2z" fill="#c4a2fc" data-original="#C4A2FC" class="active-path" style="fill:#1273EB" data-old_color="#c4a2fc"/><path d="m48.5 13h-9v-9a3 3 0 0 0 -3-3h-20a3 3 0 0 0 -3 3v9h-9a3 3 0 0 0 -3 3v20a3 3 0 0 0 3 3h9v9a3 3 0 0 0 3 3h20a3 3 0 0 0 3-3v-9h9a3 3 0 0 0 3-3v-20a3 3 0 0 0 -3-3zm-33 35v-10a1 1 0 0 0 -1-1h-6.9a5 5 0 0 1 9.9 1v11h-1a1 1 0 0 1 -1-1zm-6-20a3 3 0 1 1 3 3 3 3 0 0 1 -3-3zm13-3a4 4 0 1 1 4 4 4 4 0 0 1 -4-4zm11 24h-14v-11a7 7 0 0 1 14 0zm5-12a1 1 0 0 0 -1 1v10a1 1 0 0 1 -1 1h-1v-11a5 5 0 0 1 9.9-1zm-1-9a3 3 0 1 1 3 3 3 3 0 0 1 -3-3zm12 8a1 1 0 0 1 -1 1h-1.08a7.009 7.009 0 0 0 -3.7-5.208 5 5 0 1 0 -6.442 0 7.042 7.042 0 0 0 -2.64 2.392 9.044 9.044 0 0 0 -4.513-4.415 6 6 0 1 0 -7.252 0 9.044 9.044 0 0 0 -4.513 4.415 7.042 7.042 0 0 0 -2.64-2.392 5 5 0 1 0 -6.442 0 7.009 7.009 0 0 0 -3.698 5.208h-1.08a1 1 0 0 1 -1-1v-20a1 1 0 0 1 1-1h10a1 1 0 0 0 1-1v-10a1 1 0 0 1 1-1h20a1 1 0 0 1 1 1v10a1 1 0 0 0 1 1h10a1 1 0 0 1 1 1z" fill="#151a6a" data-original="#151A6A" class="" style="fill:#151A6A" data-old_color="#151a6a"/></g> </svg>
