<?xml version="1.0"?>
<svg xmlns="http://www.w3.org/2000/svg" id="Line" width="512" height="512" viewBox="0 0 64 64" class="hovered-paths"><g><path d="M56,29H50.405a.994.994,0,0,0-.919,1.375A7,7,0,1,1,36,33a6.935,6.935,0,0,1,.51-2.615A1,1,0,0,0,35.593,29H27a3,3,0,0,0-3,3v6.3a6.953,6.953,0,0,0-3.579-.114A7,7,0,1,0,24,51.705V60a3,3,0,0,0,3,3H56a3,3,0,0,0,3-3V32A3,3,0,0,0,56,29Z" style="fill:#1273EB" data-original="#C4A2FC" class="" data-old_color="#C4A2FC"/><path d="M46,49H42a1,1,0,0,1-1-1V17A16,16,0,0,0,9,17v5.7L5.168,28.445A1,1,0,0,0,5.4,29.8L9,32.5V39a3,3,0,0,0,3,3h6v6a1,1,0,0,1-1,1H10a1,1,0,0,0,0,2h7a3,3,0,0,0,3-3V41a1,1,0,0,0-1-1H12a1,1,0,0,1-1-1V32a1,1,0,0,0-.4-.8L7.357,28.768l3.475-5.213A1.006,1.006,0,0,0,11,23V21h3a1,1,0,0,0,1-1V17a2,2,0,0,1,4,0v3a1,1,0,0,0,1,1h4v4H22a4,4,0,0,0,0,8h2v5a1,1,0,0,0,2,0V32a1,1,0,0,0-1-1H22a2,2,0,0,1,0-4h3a1,1,0,0,0,1-1V21h3v2a4,4,0,0,0,8,0V21h2V48a3,3,0,0,0,3,3h4a1,1,0,0,0,0-2ZM21,19V17a4,4,0,0,0-8,0v2H11V17A14.007,14.007,0,0,1,24,3.051V8a1,1,0,0,0,1,1h3a2,2,0,0,1,0,4H25a1,1,0,0,0-1,1v5Zm15,0a1,1,0,0,0-1,1v3a2,2,0,0,1-4,0V20a1,1,0,0,0-1-1H26V15h2a4,4,0,0,0,0-8H26V3.051A14.007,14.007,0,0,1,39,17v2Z" style="fill:#151A6A" data-original="#151A6A" class="active-path" data-old_color="#151A6A"/></g> </svg>
