<?xml version="1.0"?>
<svg xmlns="http://www.w3.org/2000/svg" id="Line" height="512" viewBox="0 0 64 64" width="512"><g><path d="m57.313 55.641a19.637 19.637 0 0 0 5.556-12.413l.131-21.288a3.428 3.428 0 0 0 -3.431-3.51 3.584 3.584 0 0 0 -3.505 3.586l-.042 6.391a1.094 1.094 0 0 1 -1.874.754l-15.916-16.18a3.5 3.5 0 0 0 -4.894.043 3.615 3.615 0 0 0 -.075 5.01c.106.108-1.032-1.048 8.05 8.183a1.091 1.091 0 0 1 -1.562 1.523l-8.019-8.151-.04-.042-3.969-4.034a3.5 3.5 0 0 0 -4.894.043 3.612 3.612 0 0 0 -.043 5.042l11.226 11.412a1.083 1.083 0 0 1 -.017 1.538 1.1 1.1 0 0 1 -1.545-.016l-8.82-8.966a3.5 3.5 0 0 0 -4.894.042 3.61 3.61 0 0 0 -.043 5.043l13.631 13.856a1.086 1.086 0 0 1 -.017 1.539 1.1 1.1 0 0 1 -1.546-.017l-8.835-8.982a3.5 3.5 0 0 0 -4.879.059 3.614 3.614 0 0 0 -.047 5.043l14.438 14.671c6.8 7.566 16.997 8.952 25.875-.179z" fill="#c4a2fc" data-original="#C4A2FC" class="active-path" style="fill:#1273EB" data-old_color="#c4a2fc"/><path d="m6.872 45.629c-8.885-8.87-4.743-19.991-5.8-32.367a5.232 5.232 0 0 1 5.238-5.251h.018a5.309 5.309 0 0 1 5.281 5.274l.012 3.477 13.252-13.231a5.295 5.295 0 0 1 8.977 3.147l.853-.851a5.289 5.289 0 0 1 8.042 6.808 5.285 5.285 0 0 1 3.243 8.975l-1.6 1.6a5.283 5.283 0 0 1 3.15 8.965l-4.5 4.5-.015.015-9.039 9.024c-.179.206-5.465 6.051-13.167 6.279-5.463.156-10.117-2.539-13.945-6.364zm1.414-1.415c3.962 3.957 8.119 5.908 12.446 5.781 6.832-.193 11.743-5.6 11.792-5.654l13.6-13.578a3.286 3.286 0 0 0 -4.624-4.669l-8.313 8.3a1 1 0 1 1 -1.414-1.415c14.227-14.209 3.443-3.44 12.802-12.779a3.286 3.286 0 0 0 -4.622-4.671l-8.315 8.3a1 1 0 1 1 -1.414-1.415l10.544-10.531a3.285 3.285 0 0 0 -4.651-4.641l-11.3 11.28a1 1 0 1 1 -1.412-1.415l7.532-7.52a3.216 3.216 0 0 0 .949-2.287 3.295 3.295 0 0 0 -5.6-2.349l-14.95 14.922a1 1 0 0 1 -1.707-.7l-.02-5.877a3.3 3.3 0 0 0 -3.287-3.281 3.233 3.233 0 0 0 -3.253 3.245c-.069 17.393-1.302 24.445 5.217 30.954z" fill="#151a6a" data-original="#151A6A" class="" style="fill:#151A6A" data-old_color="#151a6a"/></g> </svg>
